<?xml version="1.0" encoding="UTF-8"?>
<svg version="1.1" viewBox="0 0 1024 1024" width="1024" height="1024" xmlns="http://www.w3.org/2000/svg">
<path transform="translate(0)" d="m0 0h1024v1024h-1024z" fill="#171A32"/>
<path transform="translate(226,300)" d="m0 0h96l23 65 17 47 18 50 28 77 5-12 23-64 11-30 16-44 22-61 10-27 1-1h180l17 2 19 5 16 8 11 7 12 11 9 11 8 15 5 16 3 19v25l-3 18-6 16-7 12-9 11-11 9-11 7-5 3 16 7 12 8 12 11 9 11 9 17 6 18 3 19v27l-3 19-5 16-8 17-10 14-14 14-13 9-19 10-18 6-21 4-27 2h-271l-16-44-24-64-16-44-21-57-21-56-17-46-32-86-9-24z" fill="#F4F4F4"/>
<path transform="translate(505,535)" d="m0 0h139l18 3 13 5 9 6 6 5 7 11 4 10 2 10v23l-3 12-7 13-9 9-16 8-16 3h-190l7-20 21-57z" fill="#171A32"/>
<path transform="translate(562,371)" d="m0 0h90l12 3 10 5 8 7 7 14 2 9v19l-3 12-6 12-8 8-14 7-13 3-11 1h-111l10-28 19-51z" fill="#171A32"/>
</svg>
